<svg width="1138" height="477" viewBox="0 0 1138 477" fill="none" xmlns="http://www.w3.org/2000/svg">
<path d="M47.95 356.8C41.1833 356.8 35.9333 354.933 32.2 351.2C28.7 347.467 26.95 342.1 26.95 335.1V126.85C26.95 119.617 28.7 114.133 32.2 110.4C35.9333 106.433 40.7167 104.45 46.55 104.45C51.9167 104.45 55.8833 105.5 58.45 107.6C61.25 109.467 64.5167 112.733 68.25 117.4L202.3 291.35H193.2V125.8C193.2 119.033 194.95 113.783 198.45 110.05C202.183 106.317 207.433 104.45 214.2 104.45C220.967 104.45 226.1 106.317 229.6 110.05C233.1 113.783 234.85 119.033 234.85 125.8V335.8C234.85 342.333 233.217 347.467 229.95 351.2C226.683 354.933 222.25 356.8 216.65 356.8C211.283 356.8 206.967 355.75 203.7 353.65C200.667 351.55 197.283 348.167 193.55 343.5L59.85 169.55H68.6V335.1C68.6 342.1 66.85 347.467 63.35 351.2C59.85 354.933 54.7167 356.8 47.95 356.8Z" fill="#1A353A"/>
<path d="M520.95 356.8C514.65 356.8 509.4 355.4 505.2 352.6C501.233 349.567 497.967 345.133 495.4 339.3L404.05 134.2C401.483 128.367 400.783 123.233 401.95 118.8C403.117 114.367 405.567 110.867 409.3 108.3C413.033 105.733 417.467 104.45 422.6 104.45C429.367 104.45 434.383 105.967 437.65 109C441.15 111.8 444.067 116.117 446.4 121.95L529.35 314.1H514.3L596.9 121.6C599.467 116 602.5 111.8 606 109C609.5 105.967 614.4 104.45 620.7 104.45C625.833 104.45 630.033 105.733 633.3 108.3C636.8 110.867 639.017 114.367 639.95 118.8C640.883 123.233 640.067 128.367 637.5 134.2L546.15 339.3C543.583 345.133 540.317 349.567 536.35 352.6C532.617 355.4 527.483 356.8 520.95 356.8Z" fill="#38C2D6"/>
<path d="M689.75 354C682.05 354 676.1 352.017 671.9 348.05C667.933 343.85 665.95 337.9 665.95 330.2V131.05C665.95 123.35 667.933 117.517 671.9 113.55C676.1 109.35 682.05 107.25 689.75 107.25H814.7C820.533 107.25 824.967 108.767 828 111.8C831.267 114.833 832.9 119.15 832.9 124.75C832.9 130.583 831.267 135.133 828 138.4C824.967 141.433 820.533 142.95 814.7 142.95H709V210.85H807C813.067 210.85 817.617 212.367 820.65 215.4C823.683 218.433 825.2 222.867 825.2 228.7C825.2 234.533 823.683 238.967 820.65 242C817.617 245.033 813.067 246.55 807 246.55H709V318.3H814.7C820.533 318.3 824.967 319.817 828 322.85C831.267 325.883 832.9 330.317 832.9 336.15C832.9 341.983 831.267 346.417 828 349.45C824.967 352.483 820.533 354 814.7 354H689.75Z" fill="#38C2D6"/>
<path d="M968.85 356.8C961.617 356.8 956.017 354.817 952.05 350.85C948.317 346.65 946.45 340.933 946.45 333.7V144.7H878.2C872.133 144.7 867.35 143.067 863.85 139.8C860.583 136.3 858.95 131.633 858.95 125.8C858.95 119.733 860.583 115.183 863.85 112.15C867.35 108.883 872.133 107.25 878.2 107.25H1059.5C1065.57 107.25 1070.23 108.883 1073.5 112.15C1077 115.183 1078.75 119.733 1078.75 125.8C1078.75 131.633 1077 136.3 1073.5 139.8C1070.23 143.067 1065.57 144.7 1059.5 144.7H991.25V333.7C991.25 340.933 989.383 346.65 985.65 350.85C981.917 354.817 976.317 356.8 968.85 356.8Z" fill="#38C2D6"/>
<path d="M1093.25 55.5625V84H1087.41V55.5625H1093.25ZM1102 55.5625V60.1523H1078.8V55.5625H1102ZM1108.02 55.5625H1112.98L1120.29 76.4414L1127.59 55.5625H1132.55L1122.28 84H1118.29L1108.02 55.5625ZM1105.34 55.5625H1110.29L1111.18 75.9141V84H1105.34V55.5625ZM1130.29 55.5625H1135.25V84H1129.39V75.9141L1130.29 55.5625Z" fill="black"/>
<path d="M373.588 124.146L353.29 106.08C351.583 104.565 348.988 104.654 347.39 106.285L321.588 132.664C319.916 134.377 317.157 134.377 315.477 132.664L289.675 106.285C288.078 104.654 285.483 104.565 283.776 106.08L263.477 124.146C261.654 125.764 261.559 128.576 263.266 130.323L290.652 158.327C292.27 159.985 292.277 162.633 290.652 164.292L263.211 192.48C261.531 194.207 261.607 196.978 263.389 198.609L283.353 216.88C285.053 218.436 287.682 218.361 289.293 216.716L315.437 189.975C317.123 188.248 319.902 188.262 321.575 190.002L347.083 216.539C348.674 218.197 351.289 218.293 353.003 216.771L373.568 198.459C375.391 196.841 375.487 194.029 373.78 192.282L346.4 164.285C344.775 162.627 344.775 159.972 346.4 158.313L373.78 130.316C375.487 128.576 375.384 125.764 373.568 124.139L373.588 124.146Z" fill="url(#paint0_linear_22_2)"/>
<path d="M365.486 146.591L365.568 146.509C366.081 146.003 366.909 146.037 367.388 146.57C374.565 154.422 375.236 167.775 367.196 176.584C366.711 177.117 365.876 177.144 365.363 176.631L365.281 176.549C364.815 176.085 364.788 175.326 365.233 174.841C371.965 167.461 372 155.734 365.411 148.299C364.973 147.807 365.014 147.055 365.479 146.598L365.486 146.591Z" fill="#1A353A"/>
<path d="M361.244 150.493L361.374 150.363C361.894 149.851 362.735 149.885 363.214 150.438C368.483 156.52 368.702 166.197 363.091 172.614C362.605 173.167 361.743 173.194 361.23 172.668L361.1 172.538C360.655 172.081 360.621 171.356 361.038 170.871C363.262 168.274 364.487 165.151 364.507 161.557C364.528 157.969 363.358 154.832 361.141 152.174C360.73 151.682 360.778 150.951 361.237 150.5L361.244 150.493Z" fill="#1A353A"/>
<path d="M357.427 168.592L357.297 168.462C356.852 168.018 356.811 167.314 357.201 166.816C359.664 163.624 359.582 159.285 357.221 156.135C356.825 155.608 356.893 154.884 357.386 154.44C357.413 154.419 357.44 154.392 357.461 154.372C357.461 154.372 357.461 154.372 357.468 154.365C358.001 153.859 358.864 153.873 359.322 154.447C362.463 158.397 362.627 164.349 359.288 168.517C358.822 169.091 357.954 169.125 357.427 168.599L357.427 168.592Z" fill="#1A353A"/>
<path d="M271.514 176.409L271.432 176.491C270.919 176.997 270.091 176.963 269.612 176.43C262.435 168.578 261.764 155.225 269.804 146.416C270.289 145.883 271.124 145.856 271.637 146.369L271.719 146.451C272.185 146.915 272.212 147.674 271.767 148.159C265.035 155.539 265 167.266 271.589 174.701C272.027 175.193 271.986 175.945 271.521 176.402L271.514 176.409Z" fill="#38C2D6"/>
<path d="M275.756 172.507L275.626 172.637C275.106 173.149 274.265 173.115 273.786 172.562C268.517 166.48 268.298 156.803 273.909 150.386C274.395 149.833 275.257 149.806 275.77 150.332L275.9 150.462C276.345 150.919 276.379 151.644 275.962 152.129C273.738 154.726 272.513 157.849 272.493 161.443C272.472 165.031 273.642 168.168 275.859 170.826C276.27 171.318 276.222 172.049 275.763 172.5L275.756 172.507Z" fill="#38C2D6"/>
<path d="M279.573 154.408L279.703 154.538C280.148 154.982 280.189 155.686 279.799 156.184C277.336 159.376 277.418 163.715 279.779 166.865C280.175 167.392 280.107 168.116 279.614 168.56C279.587 168.581 279.56 168.608 279.539 168.628C279.539 168.628 279.539 168.628 279.532 168.635C278.999 169.141 278.136 169.127 277.678 168.553C274.537 164.603 274.373 158.651 277.712 154.483C278.177 153.909 279.046 153.875 279.573 154.401L279.573 154.408Z" fill="#38C2D6"/>
<defs>
<linearGradient id="paint0_linear_22_2" x1="375" y1="162" x2="267" y2="162" gradientUnits="userSpaceOnUse">
<stop offset="0.102801" stop-color="#1A353A"/>
<stop offset="0.832616" stop-color="#38C2D6"/>
</linearGradient>
</defs>
</svg>
